<?xml version="1.0" encoding="UTF-8" standalone="no"?>
<!DOCTYPE svg PUBLIC "-//W3C//DTD SVG 1.1//EN" "http://www.w3.org/Graphics/SVG/1.1/DTD/svg11.dtd">
<svg width="32px" height="32px" version="1.1" xmlns="http://www.w3.org/2000/svg" xmlns:xlink="http://www.w3.org/1999/xlink" xml:space="preserve" xmlns:serif="http://www.serif.com/" style="fill-rule:evenodd;clip-rule:evenodd;stroke-linejoin:round;stroke-miterlimit:2;">
    <path d="M22.349,20.878c-0.224,0.018 -0.45,0.027 -0.678,0.027l-7.921,-0l0.171,1.537c0.008,0.076 0.012,0.152 0.012,0.228c0,2.695 -1.224,5.193 -2.8,6.762c-1.263,1.257 -2.763,1.916 -4.095,1.916l-0.495,-0c-1.188,-0 -2.293,-0.532 -3.152,-1.52c-0.936,-1.076 -1.579,-2.772 -1.579,-4.622l0,-16.443c0,-4.701 3.817,-8.517 8.517,-8.517l11.342,-0c4.7,-0 8.517,3.816 8.517,8.517l-0,3.625c-0,2.463 -1.048,4.683 -2.722,6.239c1.601,1.271 2.628,3.234 2.628,5.435c-0,3.828 -3.108,6.936 -6.937,6.936c-0.076,0 -0.152,-0.004 -0.227,-0.012c-0,-0 -4.572,-0.147 -5.733,-0.133c-0.607,0.007 -0.675,-0.137 -1.597,0.388c-0.671,0.382 -1.748,0.767 -2.306,0.296c-0.871,-0.737 -0.669,-1.956 0.067,-2.827c0,-0 1.254,-1.96 3.786,-1.991c1.144,-0.014 5.392,0.068 6.106,0.144c1.502,-0.051 2.707,-1.287 2.707,-2.801c-0,-1.274 -1.015,-2.438 -2.237,-2.809c-0.262,-0.08 -0.585,-0.222 -0.853,-0.277c-0.132,-0.027 -0.331,-0.064 -0.521,-0.098Zm-15.967,6.07c0.228,0.268 0.424,0.297 0.656,0.27c0.346,-0.041 0.796,-0.33 1.181,-0.713c0.873,-0.869 1.553,-2.243 1.583,-3.73l-0.411,-3.708c-0.065,-0.584 0.122,-1.167 0.514,-1.605c0.392,-0.437 0.951,-0.687 1.538,-0.687l10.228,-0c2.421,-0 4.387,-1.966 4.387,-4.387l-0,-3.625c-0,-2.422 -1.966,-4.387 -4.387,-4.387l-11.342,-0c-2.421,-0 -4.387,1.965 -4.387,4.387l0,16.443c0,0.66 0.091,1.331 0.44,1.742Zm5.748,-18.64c0.858,0 1.555,0.893 1.555,1.992c-0,1.1 -0.697,1.992 -1.555,1.992c-0.859,0 -1.556,-0.892 -1.556,-1.992c0,-1.099 0.697,-1.992 1.556,-1.992Zm9.701,0c0.859,0 1.555,0.893 1.555,1.992c0,1.1 -0.696,1.992 -1.555,1.992c-0.858,0 -1.555,-0.892 -1.555,-1.992c-0,-1.099 0.697,-1.992 1.555,-1.992Z" style="fill:#0041a2;"/>
</svg>
